<svg width="404" height="51" viewBox="0 0 404 51" fill="none" xmlns="http://www.w3.org/2000/svg">
<g clip-path="url(#clip0_143_569)">
<path fill-rule="evenodd" clip-rule="evenodd" d="M55.5399 3.11523L87.7471 3.44177L87.3359 4.56134L69.382 4.5147C68.3315 4.5147 67.4177 5.07448 67.0065 6.05411L56.9561 27.6059L63.0321 40.9008C63.4889 41.8805 64.3569 42.4402 65.4076 42.4402H78.5645C79.6153 42.4402 80.4833 41.8805 80.9401 40.9008L85.0516 32.0376C85.4627 31.1979 85.4171 30.2648 84.9146 29.4718C84.4578 28.6788 83.6811 28.2124 82.7675 28.1657L78.3817 27.979L78.7015 27.0462H96.1068C97.0209 27.0462 97.8433 27.5125 98.3453 28.3056C98.8482 29.0986 98.8935 30.0317 98.4824 30.918L91.6758 45.7057C91.2189 46.6852 90.351 47.245 89.3002 47.245H73.3109H71.6663H54.4892C53.4384 47.245 52.5248 46.6852 52.1137 45.7057L50.2862 41.6938L48.4589 45.7057C48.0021 46.6852 47.1341 47.245 46.0834 47.245H37.2663H20.3178C19.267 47.245 18.3533 46.6385 17.9421 45.7057L0.262567 6.94044C-0.148585 6.10076 -0.0572185 5.16778 0.39962 4.3281C0.90214 3.53506 1.72445 3.11523 2.63813 3.11523H22.0537L21.6425 4.18816L16.8915 4.28144C15.9778 4.28144 15.1555 4.74794 14.6987 5.54097C14.1962 6.33399 14.1505 7.26697 14.5616 8.10666L29.0433 39.6879C29.4089 40.5276 30.2312 41.0408 31.1447 41.0408H36.3528L53.1186 4.65464C53.5755 3.67502 54.4892 3.11523 55.5399 3.11523Z" fill="#2D62A2"/>
<path fill-rule="evenodd" clip-rule="evenodd" d="M55.5399 3.11523L87.7471 3.44177L87.3359 4.56134L69.382 4.5147C68.3315 4.5147 67.4177 5.07448 67.0065 6.05411L56.9561 27.6059L63.0321 40.9008C63.4889 41.8805 64.3569 42.4402 65.4076 42.4402H78.5645C79.6153 42.4402 80.4833 41.8805 80.9401 40.9008L85.0516 32.0376C85.4627 31.1979 85.4171 30.2648 84.9146 29.4718C84.4578 28.6788 83.6811 28.2124 82.7675 28.1657L78.3817 27.979L78.7015 27.0462H96.1068C97.0209 27.0462 97.8433 27.5125 98.3453 28.3056C98.8482 29.0986 98.8935 30.0317 98.4824 30.918L91.6758 45.7057C91.2189 46.6852 90.351 47.245 89.3002 47.245H73.3109H71.6663H54.4892C53.4384 47.245 52.5248 46.6852 52.1137 45.7057L50.2862 41.6938L48.4589 45.7057C48.0021 46.6852 47.1341 47.245 46.0834 47.245H37.2663H20.3178C19.267 47.245 18.3533 46.6385 17.9421 45.7057L0.262567 6.94044C-0.148585 6.10076 -0.0572185 5.16778 0.39962 4.3281C0.90214 3.53506 1.72445 3.11523 2.63813 3.11523H22.0537L21.6425 4.18816L16.8915 4.28144C15.9778 4.28144 15.1555 4.74794 14.6987 5.54097C14.1962 6.33399 14.1505 7.26697 14.5616 8.10666L29.0433 39.6879C29.4089 40.5276 30.2312 41.0408 31.1447 41.0408H36.3528L53.1186 4.65464C53.5755 3.67502 54.4892 3.11523 55.5399 3.11523Z" fill="url(#paint0_linear_143_569)"/>
<path d="M116 0H115.051V50.3599H116V0Z" fill="white" fill-opacity="0.15"/>
</g>
<path d="M164.82 7.61326L149.444 43.3867H141.325L126 7.61326H134.88L145.689 33.1657L156.65 7.61326H164.82Z" fill="url(#paint1_linear_143_569)"/>
<path d="M167.786 7.61326H176.006V43.3867H167.786V7.61326Z" fill="url(#paint2_linear_143_569)"/>
<path d="M199.812 7.61326C202.958 7.61326 205.682 8.14134 207.982 9.19751C210.316 10.2537 212.109 11.7528 213.361 13.6948C214.613 15.6367 215.239 17.9365 215.239 20.5939C215.239 23.2173 214.613 25.517 213.361 27.4931C212.109 29.4351 210.316 30.9342 207.982 31.9903C205.682 33.0124 202.958 33.5235 199.812 33.5235H192.657V43.3867H184.436V7.61326H199.812ZM199.355 26.7776C201.825 26.7776 203.703 26.2495 204.988 25.1934C206.274 24.1031 206.916 22.57 206.916 20.5939C206.916 18.5838 206.274 17.0506 204.988 15.9945C203.703 14.9042 201.825 14.3591 199.355 14.3591H192.657V26.7776H199.355Z" fill="url(#paint3_linear_143_569)"/>
<path d="M259.977 24.9378H267.487V39.4517C265.559 40.9167 263.326 42.041 260.789 42.8246C258.251 43.6082 255.697 44 253.126 44C249.439 44 246.123 43.2164 243.18 41.6492C240.237 40.0479 237.919 37.8504 236.228 35.0566C234.57 32.2288 233.741 29.0433 233.741 25.5C233.741 21.9567 234.57 18.7882 236.228 15.9945C237.919 13.1667 240.254 10.9692 243.231 9.40193C246.208 7.80064 249.557 7 253.278 7C256.391 7 259.215 7.52808 261.753 8.58425C264.29 9.64042 266.421 11.1736 268.147 13.1837L262.869 18.0898C260.332 15.3983 257.27 14.0525 253.684 14.0525C251.418 14.0525 249.405 14.5295 247.646 15.4834C245.886 16.4374 244.516 17.7831 243.535 19.5207C242.554 21.2583 242.064 23.2514 242.064 25.5C242.064 27.7145 242.554 29.6906 243.535 31.4282C244.516 33.1657 245.87 34.5285 247.595 35.5166C249.354 36.4705 251.35 36.9475 253.583 36.9475C255.951 36.9475 258.082 36.4365 259.977 35.4144V24.9378Z" fill="url(#paint4_linear_143_569)"/>
<path d="M275.123 7.61326H283.344V36.6409H301.155V43.3867H275.123V7.61326Z" fill="url(#paint5_linear_143_569)"/>
<path d="M329.439 35.721H312.947L309.801 43.3867H301.377L317.21 7.61326H325.329L341.212 43.3867H332.586L329.439 35.721ZM326.851 29.4351L321.219 15.7389L315.586 29.4351H326.851Z" fill="url(#paint6_linear_143_569)"/>
<path d="M356.569 44C353.761 44 351.038 43.6252 348.399 42.8757C345.794 42.0921 343.697 41.087 342.107 39.8605L344.898 33.6257C346.42 34.75 348.23 35.6529 350.327 36.3343C352.425 37.0157 354.522 37.3564 356.62 37.3564C358.954 37.3564 360.679 37.0157 361.796 36.3343C362.912 35.6188 363.47 34.6819 363.47 33.5235C363.47 32.6717 363.132 31.9733 362.455 31.4282C361.813 30.849 360.967 30.389 359.918 30.0483C358.903 29.7076 357.516 29.3329 355.757 28.924C353.051 28.2767 350.835 27.6294 349.109 26.982C347.384 26.3347 345.896 25.2956 344.644 23.8646C343.426 22.4337 342.817 20.5258 342.817 18.1409C342.817 16.0626 343.375 14.1888 344.492 12.5193C345.608 10.8158 347.283 9.47007 349.515 8.48204C351.782 7.49401 354.539 7 357.787 7C360.053 7 362.269 7.27256 364.434 7.81768C366.599 8.3628 368.494 9.14641 370.118 10.1685L367.581 16.4544C364.299 14.5806 361.018 13.6436 357.736 13.6436C355.436 13.6436 353.727 14.0184 352.611 14.768C351.528 15.5175 350.987 16.5055 350.987 17.732C350.987 18.9586 351.613 19.8785 352.865 20.4917C354.15 21.0709 356.095 21.6501 358.7 22.2293C361.407 22.8766 363.622 23.5239 365.348 24.1713C367.073 24.8186 368.545 25.8407 369.763 27.2376C371.014 28.6344 371.64 30.5253 371.64 32.9102C371.64 34.9544 371.065 36.8283 369.915 38.5318C368.798 40.2012 367.107 41.5299 364.84 42.518C362.574 43.506 359.817 44 356.569 44Z" fill="url(#paint7_linear_143_569)"/>
<path d="M388.929 44C386.121 44 383.398 43.6252 380.759 42.8757C378.154 42.0921 376.056 41.087 374.466 39.8605L377.257 33.6257C378.78 34.75 380.59 35.6529 382.687 36.3343C384.785 37.0157 386.882 37.3564 388.979 37.3564C391.314 37.3564 393.039 37.0157 394.155 36.3343C395.272 35.6188 395.83 34.6819 395.83 33.5235C395.83 32.6717 395.492 31.9733 394.815 31.4282C394.172 30.849 393.327 30.389 392.278 30.0483C391.263 29.7076 389.876 29.3329 388.117 28.924C385.41 28.2767 383.195 27.6294 381.469 26.982C379.744 26.3347 378.255 25.2956 377.004 23.8646C375.786 22.4337 375.177 20.5258 375.177 18.1409C375.177 16.0626 375.735 14.1888 376.851 12.5193C377.968 10.8158 379.642 9.47007 381.875 8.48204C384.142 7.49401 386.899 7 390.147 7C392.413 7 394.629 7.27256 396.794 7.81768C398.959 8.3628 400.854 9.14641 402.478 10.1685L399.94 16.4544C396.659 14.5806 393.377 13.6436 390.096 13.6436C387.795 13.6436 386.087 14.0184 384.971 14.768C383.888 15.5175 383.347 16.5055 383.347 17.732C383.347 18.9586 383.973 19.8785 385.224 20.4917C386.51 21.0709 388.455 21.6501 391.06 22.2293C393.766 22.8766 395.982 23.5239 397.708 24.1713C399.433 24.8186 400.905 25.8407 402.122 27.2376C403.374 28.6344 404 30.5253 404 32.9102C404 34.9544 403.425 36.8283 402.275 38.5318C401.158 40.2012 399.467 41.5299 397.2 42.518C394.934 43.506 392.176 44 388.929 44Z" fill="url(#paint8_linear_143_569)"/>
<defs>
<linearGradient id="paint0_linear_143_569" x1="49.38" y1="3.11523" x2="49.38" y2="47.245" gradientUnits="userSpaceOnUse">
<stop stop-color="#2D62A2"/>
<stop offset="0.520833" stop-color="#0EAACC"/>
<stop offset="1" stop-color="#2D62A2"/>
</linearGradient>
<linearGradient id="paint1_linear_143_569" x1="265" y1="7" x2="265" y2="44" gradientUnits="userSpaceOnUse">
<stop stop-color="#2D62A2"/>
<stop offset="0.520833" stop-color="#0EAACC"/>
<stop offset="1" stop-color="#2D62A2"/>
</linearGradient>
<linearGradient id="paint2_linear_143_569" x1="265" y1="7" x2="265" y2="44" gradientUnits="userSpaceOnUse">
<stop stop-color="#2D62A2"/>
<stop offset="0.520833" stop-color="#0EAACC"/>
<stop offset="1" stop-color="#2D62A2"/>
</linearGradient>
<linearGradient id="paint3_linear_143_569" x1="265" y1="7" x2="265" y2="44" gradientUnits="userSpaceOnUse">
<stop stop-color="#2D62A2"/>
<stop offset="0.520833" stop-color="#0EAACC"/>
<stop offset="1" stop-color="#2D62A2"/>
</linearGradient>
<linearGradient id="paint4_linear_143_569" x1="265" y1="7" x2="265" y2="44" gradientUnits="userSpaceOnUse">
<stop stop-color="#2D62A2"/>
<stop offset="0.520833" stop-color="#0EAACC"/>
<stop offset="1" stop-color="#2D62A2"/>
</linearGradient>
<linearGradient id="paint5_linear_143_569" x1="265" y1="7" x2="265" y2="44" gradientUnits="userSpaceOnUse">
<stop stop-color="#2D62A2"/>
<stop offset="0.520833" stop-color="#0EAACC"/>
<stop offset="1" stop-color="#2D62A2"/>
</linearGradient>
<linearGradient id="paint6_linear_143_569" x1="265" y1="7" x2="265" y2="44" gradientUnits="userSpaceOnUse">
<stop stop-color="#2D62A2"/>
<stop offset="0.520833" stop-color="#0EAACC"/>
<stop offset="1" stop-color="#2D62A2"/>
</linearGradient>
<linearGradient id="paint7_linear_143_569" x1="265" y1="7" x2="265" y2="44" gradientUnits="userSpaceOnUse">
<stop stop-color="#2D62A2"/>
<stop offset="0.520833" stop-color="#0EAACC"/>
<stop offset="1" stop-color="#2D62A2"/>
</linearGradient>
<linearGradient id="paint8_linear_143_569" x1="265" y1="7" x2="265" y2="44" gradientUnits="userSpaceOnUse">
<stop stop-color="#2D62A2"/>
<stop offset="0.520833" stop-color="#0EAACC"/>
<stop offset="1" stop-color="#2D62A2"/>
</linearGradient>
<clipPath id="clip0_143_569">
<rect width="116" height="51" fill="white"/>
</clipPath>
</defs>
</svg>
