<svg width="352" height="51" viewBox="0 0 352 51" fill="none" xmlns="http://www.w3.org/2000/svg">
<g clip-path="url(#clip0_507_258)">
<path fill-rule="evenodd" clip-rule="evenodd" d="M55.5399 3.11523L87.7471 3.44177L87.3359 4.56134L69.382 4.5147C68.3315 4.5147 67.4177 5.07448 67.0065 6.05411L56.9561 27.6059L63.0321 40.9008C63.4889 41.8805 64.3569 42.4402 65.4076 42.4402H78.5645C79.6153 42.4402 80.4833 41.8805 80.9401 40.9008L85.0516 32.0376C85.4627 31.1979 85.4171 30.2648 84.9146 29.4718C84.4578 28.6788 83.6811 28.2124 82.7675 28.1657L78.3817 27.979L78.7015 27.0462H96.1068C97.0209 27.0462 97.8433 27.5125 98.3453 28.3056C98.8482 29.0986 98.8935 30.0317 98.4824 30.918L91.6758 45.7057C91.2189 46.6852 90.351 47.245 89.3002 47.245H73.3109H71.6663H54.4892C53.4384 47.245 52.5248 46.6852 52.1137 45.7057L50.2862 41.6938L48.4589 45.7057C48.0021 46.6852 47.1341 47.245 46.0834 47.245H37.2663H20.3178C19.267 47.245 18.3533 46.6385 17.9421 45.7057L0.262567 6.94044C-0.148585 6.10076 -0.0572185 5.16778 0.39962 4.3281C0.90214 3.53506 1.72445 3.11523 2.63813 3.11523H22.0537L21.6425 4.18816L16.8915 4.28144C15.9778 4.28144 15.1555 4.74794 14.6987 5.54097C14.1962 6.33399 14.1505 7.26697 14.5616 8.10666L29.0433 39.6879C29.4089 40.5276 30.2312 41.0408 31.1447 41.0408H36.3528L53.1186 4.65464C53.5755 3.67502 54.4892 3.11523 55.5399 3.11523Z" fill="url(#paint0_linear_507_258)"/>
<path d="M116 0H115.051V50.3599H116V0Z" fill="black" fill-opacity="0.15"/>
</g>
<path d="M118.33 17.108C117.994 17.108 117.736 17.006 117.556 16.802C117.376 16.598 117.256 16.346 117.196 16.046C117.088 15.566 116.962 14.966 116.818 14.246C116.686 13.514 116.542 12.734 116.386 11.906C116.23 11.066 116.074 10.238 115.918 9.422C115.774 8.594 115.642 7.844 115.522 7.172C115.402 6.488 115.306 5.942 115.234 5.534C115.162 5.126 115.126 4.922 115.126 4.922C115.09 4.718 115.09 4.58 115.126 4.508C115.162 4.436 115.312 4.4 115.576 4.4H117.268L118.168 10.268C118.264 10.856 118.348 11.468 118.42 12.104C118.504 12.74 118.582 13.34 118.654 13.904C118.726 14.468 118.786 14.948 118.834 15.344C118.87 14.948 118.918 14.468 118.978 13.904C119.038 13.34 119.104 12.74 119.176 12.104C119.26 11.468 119.344 10.856 119.428 10.268L120.202 4.94C120.226 4.748 120.268 4.61 120.328 4.526C120.388 4.442 120.508 4.4 120.688 4.4H122.47L120.094 17C119.794 17.036 119.518 17.06 119.266 17.072C119.026 17.096 118.714 17.108 118.33 17.108ZM123.099 17V5.282C123.099 4.982 123.129 4.772 123.189 4.652C123.249 4.532 123.423 4.46 123.711 4.436C123.999 4.412 124.479 4.4 125.151 4.4V16.64C125.151 16.76 125.121 16.844 125.061 16.892C125.001 16.94 124.827 16.97 124.539 16.982C124.263 16.994 123.783 17 123.099 17ZM126.822 12.14C126.618 12.14 126.498 12.104 126.462 12.032C126.426 11.96 126.408 11.828 126.408 11.636V4.76C126.408 4.76 126.414 4.7 126.426 4.58C126.438 4.46 126.54 4.4 126.732 4.4H128.28C129.036 4.4 129.672 4.508 130.188 4.724C130.715 4.928 131.112 5.3 131.376 5.84C131.652 6.368 131.79 7.124 131.79 8.108C131.79 8.924 131.688 9.596 131.484 10.124C131.292 10.64 131.028 11.048 130.692 11.348C130.368 11.636 130.002 11.84 129.594 11.96C129.198 12.08 128.79 12.14 128.37 12.14H126.822ZM126.228 17V4.76C126.228 4.628 126.246 4.538 126.281 4.49C126.33 4.43 126.432 4.4 126.588 4.4H127.884C128.064 4.4 128.166 4.46 128.19 4.58C128.226 4.7 128.244 4.76 128.244 4.76V16.64C128.244 16.76 128.214 16.844 128.154 16.892C128.094 16.94 127.926 16.97 127.65 16.982C127.374 16.994 126.9 17 126.228 17ZM128.244 10.286H128.604C128.796 10.286 128.958 10.226 129.09 10.106C129.222 9.974 129.324 9.734 129.396 9.386C129.48 9.038 129.522 8.528 129.522 7.856C129.522 7.472 129.492 7.154 129.432 6.902C129.384 6.65 129.3 6.464 129.18 6.344C129.072 6.212 128.922 6.146 128.73 6.146H128.244V10.286ZM138.257 17.18C137.573 17.18 137.009 17.09 136.565 16.91C136.121 16.718 135.773 16.4 135.521 15.956C135.269 15.512 135.089 14.894 134.981 14.102C134.885 13.31 134.837 12.314 134.837 11.114C134.837 9.662 134.927 8.486 135.107 7.586C135.287 6.674 135.545 5.978 135.881 5.498C136.217 5.006 136.631 4.67 137.123 4.49C137.615 4.31 138.173 4.22 138.797 4.22C139.445 4.22 139.931 4.328 140.255 4.544C140.591 4.748 140.759 4.988 140.759 5.264C140.759 5.492 140.729 5.72 140.669 5.948C140.621 6.176 140.567 6.38 140.507 6.56C140.375 6.452 140.189 6.368 139.949 6.308C139.709 6.236 139.469 6.2 139.229 6.2C138.773 6.2 138.401 6.29 138.113 6.47C137.825 6.638 137.597 6.908 137.429 7.28C137.273 7.652 137.165 8.144 137.105 8.756C137.045 9.356 137.015 10.088 137.015 10.952C137.015 11.864 137.033 12.602 137.069 13.166C137.117 13.73 137.189 14.162 137.285 14.462C137.381 14.75 137.513 14.948 137.681 15.056C137.849 15.152 138.053 15.2 138.293 15.2C138.413 15.2 138.509 15.194 138.581 15.182C138.665 15.158 138.725 15.134 138.761 15.11C138.809 15.086 138.845 15.062 138.869 15.038V11.006H138.041V9.71C138.041 9.47 138.185 9.35 138.473 9.35H140.759L140.741 16.622C140.549 16.742 140.321 16.844 140.057 16.928C139.805 17.012 139.529 17.072 139.229 17.108C138.929 17.156 138.605 17.18 138.257 17.18ZM141.661 17V4.904C141.661 4.736 141.691 4.616 141.751 4.544C141.811 4.472 141.979 4.43 142.255 4.418C142.543 4.406 143.017 4.4 143.677 4.4V15.11H146.215V16.64C146.215 16.784 146.179 16.88 146.107 16.928C146.047 16.976 145.963 17 145.855 17H141.661ZM147.796 17.036C147.664 17.036 147.478 17.03 147.238 17.018C146.998 17.006 146.758 16.988 146.518 16.964L149.524 4.742C149.572 4.49 149.842 4.364 150.334 4.364C150.502 4.364 150.67 4.37 150.838 4.382C151.018 4.394 151.168 4.412 151.288 4.436L154.294 16.676C154.318 16.796 154.276 16.886 154.168 16.946C154.06 17.006 153.802 17.036 153.394 17.036C153.262 17.036 153.1 17.03 152.908 17.018C152.716 17.018 152.488 17.012 152.224 17L150.91 10.646C150.85 10.322 150.79 9.974 150.73 9.602C150.67 9.218 150.616 8.822 150.568 8.414C150.52 8.006 150.478 7.616 150.442 7.244C150.406 7.616 150.358 8.006 150.298 8.414C150.25 8.822 150.196 9.218 150.136 9.602C150.088 9.974 150.028 10.322 149.956 10.646L148.714 16.658C148.69 16.778 148.63 16.874 148.534 16.946C148.45 17.006 148.204 17.036 147.796 17.036ZM148.57 14.138V12.32H152.638V14.138H148.57ZM156.81 17.18C156.006 17.18 155.412 17.06 155.028 16.82C154.644 16.568 154.452 16.286 154.452 15.974C154.452 15.77 154.488 15.536 154.56 15.272C154.632 14.996 154.746 14.744 154.902 14.516C155.094 14.684 155.34 14.828 155.64 14.948C155.94 15.056 156.252 15.11 156.576 15.11C157.068 15.11 157.41 14.984 157.602 14.732C157.794 14.48 157.89 14.144 157.89 13.724C157.89 13.412 157.83 13.118 157.71 12.842C157.602 12.566 157.392 12.224 157.08 11.816L155.442 9.62C155.034 9.068 154.764 8.588 154.632 8.18C154.5 7.772 154.434 7.37 154.434 6.974C154.434 6.158 154.704 5.498 155.244 4.994C155.784 4.478 156.582 4.22 157.638 4.22C158.55 4.22 159.186 4.31 159.546 4.49C159.906 4.67 160.086 4.916 160.086 5.228C160.086 5.396 160.05 5.582 159.978 5.786C159.906 5.978 159.786 6.17 159.618 6.362C159.522 6.29 159.324 6.212 159.024 6.128C158.724 6.044 158.4 6.002 158.052 6.002C157.608 6.002 157.26 6.08 157.008 6.236C156.756 6.38 156.63 6.608 156.63 6.92C156.63 7.196 156.678 7.454 156.774 7.694C156.882 7.922 157.05 8.198 157.278 8.522L159.006 10.736C159.438 11.288 159.726 11.786 159.87 12.23C160.014 12.674 160.086 13.154 160.086 13.67C160.086 14.27 159.99 14.84 159.798 15.38C159.618 15.908 159.294 16.34 158.826 16.676C158.358 17.012 157.686 17.18 156.81 17.18ZM162.998 17.18C162.194 17.18 161.6 17.06 161.216 16.82C160.832 16.568 160.64 16.286 160.64 15.974C160.64 15.77 160.676 15.536 160.748 15.272C160.82 14.996 160.934 14.744 161.09 14.516C161.282 14.684 161.528 14.828 161.828 14.948C162.128 15.056 162.44 15.11 162.764 15.11C163.256 15.11 163.598 14.984 163.79 14.732C163.982 14.48 164.078 14.144 164.078 13.724C164.078 13.412 164.018 13.118 163.898 12.842C163.79 12.566 163.58 12.224 163.268 11.816L161.63 9.62C161.222 9.068 160.952 8.588 160.82 8.18C160.688 7.772 160.622 7.37 160.622 6.974C160.622 6.158 160.892 5.498 161.432 4.994C161.972 4.478 162.77 4.22 163.826 4.22C164.738 4.22 165.374 4.31 165.734 4.49C166.094 4.67 166.274 4.916 166.274 5.228C166.274 5.396 166.238 5.582 166.166 5.786C166.094 5.978 165.974 6.17 165.806 6.362C165.71 6.29 165.512 6.212 165.212 6.128C164.912 6.044 164.588 6.002 164.24 6.002C163.796 6.002 163.448 6.08 163.196 6.236C162.944 6.38 162.818 6.608 162.818 6.92C162.818 7.196 162.866 7.454 162.962 7.694C163.07 7.922 163.238 8.198 163.466 8.522L165.194 10.736C165.626 11.288 165.914 11.786 166.058 12.23C166.202 12.674 166.274 13.154 166.274 13.67C166.274 14.27 166.178 14.84 165.986 15.38C165.806 15.908 165.482 16.34 165.014 16.676C164.546 17.012 163.874 17.18 162.998 17.18Z" fill="url(#paint1_linear_507_258)"/>
<path d="M118.588 22.528C119.372 22.528 120.08 22.712 120.712 23.08C121.352 23.448 121.852 23.96 122.212 24.616C122.58 25.264 122.764 25.992 122.764 26.8C122.764 27.608 122.58 28.34 122.212 28.996C121.852 29.644 121.352 30.152 120.712 30.52C120.08 30.888 119.372 31.072 118.588 31.072C117.932 31.072 117.332 30.968 116.788 30.76C116.244 30.552 115.788 30.244 115.42 29.836L115.972 29.272C116.636 29.944 117.496 30.28 118.552 30.28C119.144 30.28 119.684 30.144 120.172 29.872C120.66 29.592 121.052 29.212 121.348 28.732C121.652 28.244 121.824 27.696 121.864 27.088H117.532V26.356H121.852C121.788 25.772 121.604 25.252 121.3 24.796C121.004 24.332 120.616 23.972 120.136 23.716C119.656 23.452 119.128 23.32 118.552 23.32C117.496 23.32 116.636 23.656 115.972 24.328L115.42 23.764C115.788 23.356 116.244 23.048 116.788 22.84C117.332 22.632 117.932 22.528 118.588 22.528ZM126.977 28.192H125.537V31H124.685V24.688H125.537V27.46H126.989L129.209 24.688H130.133L127.649 27.748L130.313 31H129.305L126.977 28.192ZM134.075 31.06C133.451 31.06 132.891 30.924 132.395 30.652C131.907 30.38 131.523 30 131.243 29.512C130.963 29.016 130.823 28.46 130.823 27.844C130.823 27.228 130.963 26.676 131.243 26.188C131.523 25.7 131.907 25.32 132.395 25.048C132.891 24.776 133.451 24.64 134.075 24.64C134.619 24.64 135.103 24.748 135.527 24.964C135.959 25.172 136.299 25.48 136.547 25.888L135.911 26.32C135.703 26.008 135.439 25.776 135.119 25.624C134.799 25.464 134.451 25.384 134.075 25.384C133.619 25.384 133.207 25.488 132.839 25.696C132.479 25.896 132.195 26.184 131.987 26.56C131.787 26.936 131.687 27.364 131.687 27.844C131.687 28.332 131.787 28.764 131.987 29.14C132.195 29.508 132.479 29.796 132.839 30.004C133.207 30.204 133.619 30.304 134.075 30.304C134.451 30.304 134.799 30.228 135.119 30.076C135.439 29.924 135.703 29.692 135.911 29.38L136.547 29.812C136.299 30.22 135.959 30.532 135.527 30.748C135.095 30.956 134.611 31.06 134.075 31.06ZM140.488 28.192H139.048V31H138.196V24.688H139.048V27.46H140.5L142.72 24.688H143.644L141.16 27.748L143.824 31H142.816L140.488 28.192ZM150.329 24.688V31H149.477V25.444H146.453L146.369 27.004C146.305 28.316 146.153 29.324 145.913 30.028C145.673 30.732 145.245 31.084 144.629 31.084C144.461 31.084 144.257 31.052 144.017 30.988L144.077 30.256C144.221 30.288 144.321 30.304 144.377 30.304C144.705 30.304 144.953 30.152 145.121 29.848C145.289 29.544 145.401 29.168 145.457 28.72C145.513 28.272 145.561 27.68 145.601 26.944L145.709 24.688H150.329ZM158.175 24.64C158.767 24.64 159.299 24.776 159.771 25.048C160.251 25.32 160.627 25.7 160.899 26.188C161.171 26.676 161.307 27.228 161.307 27.844C161.307 28.46 161.171 29.012 160.899 29.5C160.627 29.988 160.251 30.372 159.771 30.652C159.299 30.924 158.767 31.06 158.175 31.06C157.615 31.06 157.107 30.94 156.651 30.7C156.195 30.452 155.823 30.112 155.535 29.68C155.255 29.248 155.091 28.752 155.043 28.192H153.603V31H152.751V24.688H153.603V27.412H155.055C155.119 26.868 155.291 26.388 155.571 25.972C155.859 25.548 156.227 25.22 156.675 24.988C157.123 24.756 157.623 24.64 158.175 24.64ZM158.175 30.316C158.607 30.316 158.995 30.212 159.339 30.004C159.691 29.796 159.967 29.504 160.167 29.128C160.367 28.752 160.467 28.324 160.467 27.844C160.467 27.364 160.367 26.936 160.167 26.56C159.967 26.184 159.691 25.896 159.339 25.696C158.995 25.488 158.607 25.384 158.175 25.384C157.743 25.384 157.351 25.488 156.999 25.696C156.655 25.896 156.383 26.184 156.183 26.56C155.983 26.936 155.883 27.364 155.883 27.844C155.883 28.324 155.983 28.752 156.183 29.128C156.383 29.504 156.655 29.796 156.999 30.004C157.351 30.212 157.743 30.316 158.175 30.316ZM166.159 27.712C166.607 27.816 166.951 27.996 167.191 28.252C167.439 28.508 167.563 28.82 167.563 29.188C167.563 29.556 167.435 29.884 167.179 30.172C166.931 30.46 166.591 30.684 166.159 30.844C165.727 30.996 165.251 31.072 164.731 31.072C164.275 31.072 163.827 31.008 163.387 30.88C162.947 30.744 162.563 30.548 162.235 30.292L162.523 29.656C162.811 29.872 163.147 30.04 163.531 30.16C163.915 30.28 164.303 30.34 164.695 30.34C165.279 30.34 165.755 30.232 166.123 30.016C166.499 29.792 166.687 29.492 166.687 29.116C166.687 28.78 166.535 28.52 166.231 28.336C165.927 28.144 165.511 28.048 164.983 28.048H163.903V27.424H164.935C165.407 27.424 165.787 27.336 166.075 27.16C166.363 26.976 166.507 26.732 166.507 26.428C166.507 26.092 166.343 25.828 166.015 25.636C165.695 25.444 165.275 25.348 164.755 25.348C164.075 25.348 163.403 25.52 162.739 25.864L162.499 25.204C163.251 24.812 164.031 24.616 164.839 24.616C165.319 24.616 165.751 24.688 166.135 24.832C166.527 24.968 166.831 25.164 167.047 25.42C167.271 25.676 167.383 25.972 167.383 26.308C167.383 26.628 167.271 26.912 167.047 27.16C166.831 27.408 166.535 27.592 166.159 27.712ZM169.497 24.688H170.349V29.704L174.561 24.688H175.317V31H174.465V25.984L170.265 31H169.497V24.688ZM181.779 27.736C182.635 27.936 183.063 28.452 183.063 29.284C183.063 29.836 182.859 30.26 182.451 30.556C182.043 30.852 181.435 31 180.627 31H177.759V24.688H180.543C181.263 24.688 181.827 24.828 182.235 25.108C182.643 25.388 182.847 25.788 182.847 26.308C182.847 26.652 182.751 26.948 182.559 27.196C182.375 27.436 182.115 27.616 181.779 27.736ZM178.587 27.496H180.483C180.971 27.496 181.343 27.404 181.599 27.22C181.863 27.036 181.995 26.768 181.995 26.416C181.995 26.064 181.863 25.8 181.599 25.624C181.343 25.448 180.971 25.36 180.483 25.36H178.587V27.496ZM180.591 30.328C181.135 30.328 181.543 30.24 181.815 30.064C182.087 29.888 182.223 29.612 182.223 29.236C182.223 28.86 182.099 28.584 181.851 28.408C181.603 28.224 181.211 28.132 180.675 28.132H178.587V30.328H180.591ZM185.06 24.688H185.912V27.484H189.884V24.688H190.736V31H189.884V28.216H185.912V31H185.06V24.688ZM195.809 26.92C196.601 26.928 197.205 27.104 197.621 27.448C198.037 27.792 198.245 28.288 198.245 28.936C198.245 29.608 198.021 30.124 197.573 30.484C197.125 30.844 196.485 31.02 195.653 31.012L193.157 31V24.688H194.009V26.896L195.809 26.92ZM199.301 24.688H200.153V31H199.301V24.688ZM195.605 30.364C196.189 30.372 196.629 30.256 196.925 30.016C197.229 29.768 197.381 29.408 197.381 28.936C197.381 28.472 197.233 28.128 196.937 27.904C196.641 27.68 196.197 27.564 195.605 27.556L194.009 27.532V30.34L195.605 30.364ZM208.099 28.108H202.819C202.867 28.764 203.119 29.296 203.575 29.704C204.031 30.104 204.607 30.304 205.303 30.304C205.695 30.304 206.055 30.236 206.383 30.1C206.711 29.956 206.995 29.748 207.235 29.476L207.715 30.028C207.435 30.364 207.083 30.62 206.659 30.796C206.243 30.972 205.783 31.06 205.279 31.06C204.631 31.06 204.055 30.924 203.551 30.652C203.055 30.372 202.667 29.988 202.387 29.5C202.107 29.012 201.967 28.46 201.967 27.844C201.967 27.228 202.099 26.676 202.363 26.188C202.635 25.7 203.003 25.32 203.467 25.048C203.939 24.776 204.467 24.64 205.051 24.64C205.635 24.64 206.159 24.776 206.623 25.048C207.087 25.32 207.451 25.7 207.715 26.188C207.979 26.668 208.111 27.22 208.111 27.844L208.099 28.108ZM205.051 25.372C204.443 25.372 203.931 25.568 203.515 25.96C203.107 26.344 202.875 26.848 202.819 27.472H207.295C207.239 26.848 207.003 26.344 206.587 25.96C206.179 25.568 205.667 25.372 205.051 25.372ZM213.138 24.688H213.99V29.704L218.202 24.688H218.958V31H218.106V25.984L213.906 31H213.138V24.688ZM224.343 27.712C224.791 27.816 225.135 27.996 225.375 28.252C225.623 28.508 225.747 28.82 225.747 29.188C225.747 29.556 225.619 29.884 225.363 30.172C225.115 30.46 224.775 30.684 224.343 30.844C223.911 30.996 223.435 31.072 222.915 31.072C222.459 31.072 222.011 31.008 221.571 30.88C221.131 30.744 220.747 30.548 220.419 30.292L220.707 29.656C220.995 29.872 221.331 30.04 221.715 30.16C222.099 30.28 222.487 30.34 222.879 30.34C223.463 30.34 223.939 30.232 224.307 30.016C224.683 29.792 224.871 29.492 224.871 29.116C224.871 28.78 224.719 28.52 224.415 28.336C224.111 28.144 223.695 28.048 223.167 28.048H222.087V27.424H223.119C223.591 27.424 223.971 27.336 224.259 27.16C224.547 26.976 224.691 26.732 224.691 26.428C224.691 26.092 224.527 25.828 224.199 25.636C223.879 25.444 223.459 25.348 222.939 25.348C222.259 25.348 221.587 25.52 220.923 25.864L220.683 25.204C221.435 24.812 222.215 24.616 223.023 24.616C223.503 24.616 223.935 24.688 224.319 24.832C224.711 24.968 225.015 25.164 225.231 25.42C225.455 25.676 225.567 25.972 225.567 26.308C225.567 26.628 225.455 26.912 225.231 27.16C225.015 27.408 224.719 27.592 224.343 27.712ZM233.837 30.256V32.524H233.033V31H227.381V32.524H226.577V30.256H226.937C227.361 30.232 227.649 29.92 227.801 29.32C227.953 28.72 228.057 27.88 228.113 26.8L228.197 24.688H232.853V30.256H233.837ZM228.893 26.848C228.853 27.744 228.777 28.484 228.665 29.068C228.553 29.644 228.353 30.04 228.065 30.256H232.001V25.444H228.965L228.893 26.848ZM241.017 28.108H235.737C235.785 28.764 236.037 29.296 236.493 29.704C236.949 30.104 237.525 30.304 238.221 30.304C238.613 30.304 238.973 30.236 239.301 30.1C239.629 29.956 239.913 29.748 240.153 29.476L240.633 30.028C240.353 30.364 240.001 30.62 239.577 30.796C239.161 30.972 238.701 31.06 238.197 31.06C237.549 31.06 236.973 30.924 236.469 30.652C235.973 30.372 235.585 29.988 235.305 29.5C235.025 29.012 234.885 28.46 234.885 27.844C234.885 27.228 235.017 26.676 235.281 26.188C235.553 25.7 235.921 25.32 236.385 25.048C236.857 24.776 237.385 24.64 237.969 24.64C238.553 24.64 239.077 24.776 239.541 25.048C240.005 25.32 240.369 25.7 240.633 26.188C240.897 26.668 241.029 27.22 241.029 27.844L241.017 28.108ZM237.969 25.372C237.361 25.372 236.849 25.568 236.433 25.96C236.025 26.344 235.793 26.848 235.737 27.472H240.213C240.157 26.848 239.921 26.344 239.505 25.96C239.097 25.568 238.585 25.372 237.969 25.372ZM247.946 24.688V31H247.094V25.444H244.07L243.986 27.004C243.922 28.316 243.77 29.324 243.53 30.028C243.29 30.732 242.862 31.084 242.246 31.084C242.078 31.084 241.874 31.052 241.634 30.988L241.694 30.256C241.838 30.288 241.938 30.304 241.994 30.304C242.322 30.304 242.57 30.152 242.738 29.848C242.906 29.544 243.018 29.168 243.074 28.72C243.13 28.272 243.178 27.68 243.218 26.944L243.326 24.688H247.946ZM250.368 24.688H251.22V29.704L255.432 24.688H256.188V31H255.336V25.984L251.136 31H250.368V24.688ZM263.478 24.688V31H262.698V28.912H260.718H260.478L259.014 31H258.09L259.662 28.792C259.174 28.656 258.798 28.424 258.534 28.096C258.27 27.768 258.138 27.352 258.138 26.848C258.138 26.144 258.378 25.608 258.858 25.24C259.338 24.872 259.994 24.688 260.826 24.688H263.478ZM259.002 26.872C259.002 27.808 259.598 28.276 260.79 28.276H262.698V25.444H260.85C259.618 25.444 259.002 25.92 259.002 26.872ZM116.212 40.688H117.064V45.704L121.276 40.688H122.032V47H121.18V41.984L116.98 47H116.212V40.688ZM127.417 43.712C127.865 43.816 128.209 43.996 128.449 44.252C128.697 44.508 128.821 44.82 128.821 45.188C128.821 45.556 128.693 45.884 128.437 46.172C128.189 46.46 127.849 46.684 127.417 46.844C126.985 46.996 126.509 47.072 125.989 47.072C125.533 47.072 125.085 47.008 124.645 46.88C124.205 46.744 123.821 46.548 123.493 46.292L123.781 45.656C124.069 45.872 124.405 46.04 124.789 46.16C125.173 46.28 125.561 46.34 125.953 46.34C126.537 46.34 127.013 46.232 127.381 46.016C127.757 45.792 127.945 45.492 127.945 45.116C127.945 44.78 127.793 44.52 127.489 44.336C127.185 44.144 126.769 44.048 126.241 44.048H125.161V43.424H126.193C126.665 43.424 127.045 43.336 127.333 43.16C127.621 42.976 127.765 42.732 127.765 42.428C127.765 42.092 127.601 41.828 127.273 41.636C126.953 41.444 126.533 41.348 126.013 41.348C125.333 41.348 124.661 41.52 123.997 41.864L123.757 41.204C124.509 40.812 125.289 40.616 126.097 40.616C126.577 40.616 127.009 40.688 127.393 40.832C127.785 40.968 128.089 41.164 128.305 41.42C128.529 41.676 128.641 41.972 128.641 42.308C128.641 42.628 128.529 42.912 128.305 43.16C128.089 43.408 127.793 43.592 127.417 43.712ZM136.536 47.06C135.912 47.06 135.352 46.924 134.856 46.652C134.368 46.38 133.984 46 133.704 45.512C133.424 45.016 133.284 44.46 133.284 43.844C133.284 43.228 133.424 42.676 133.704 42.188C133.984 41.7 134.368 41.32 134.856 41.048C135.352 40.776 135.912 40.64 136.536 40.64C137.08 40.64 137.564 40.748 137.988 40.964C138.42 41.172 138.76 41.48 139.008 41.888L138.372 42.32C138.164 42.008 137.9 41.776 137.58 41.624C137.26 41.464 136.912 41.384 136.536 41.384C136.08 41.384 135.668 41.488 135.3 41.696C134.94 41.896 134.656 42.184 134.448 42.56C134.248 42.936 134.148 43.364 134.148 43.844C134.148 44.332 134.248 44.764 134.448 45.14C134.656 45.508 134.94 45.796 135.3 46.004C135.668 46.204 136.08 46.304 136.536 46.304C136.912 46.304 137.26 46.228 137.58 46.076C137.9 45.924 138.164 45.692 138.372 45.38L139.008 45.812C138.76 46.22 138.42 46.532 137.988 46.748C137.556 46.956 137.072 47.06 136.536 47.06ZM144.98 41.444H142.592V47H141.74V41.444H139.352V40.688H144.98V41.444ZM151.439 44.108H146.159C146.207 44.764 146.459 45.296 146.915 45.704C147.371 46.104 147.947 46.304 148.643 46.304C149.035 46.304 149.395 46.236 149.723 46.1C150.051 45.956 150.335 45.748 150.575 45.476L151.055 46.028C150.775 46.364 150.423 46.62 149.999 46.796C149.583 46.972 149.123 47.06 148.619 47.06C147.971 47.06 147.395 46.924 146.891 46.652C146.395 46.372 146.007 45.988 145.727 45.5C145.447 45.012 145.307 44.46 145.307 43.844C145.307 43.228 145.439 42.676 145.703 42.188C145.975 41.7 146.343 41.32 146.807 41.048C147.279 40.776 147.807 40.64 148.391 40.64C148.975 40.64 149.499 40.776 149.963 41.048C150.427 41.32 150.791 41.7 151.055 42.188C151.319 42.668 151.451 43.22 151.451 43.844L151.439 44.108ZM148.391 41.372C147.783 41.372 147.271 41.568 146.855 41.96C146.447 42.344 146.215 42.848 146.159 43.472H150.635C150.579 42.848 150.343 42.344 149.927 41.96C149.519 41.568 149.007 41.372 148.391 41.372ZM155.629 44.192H154.189V47H153.337V40.688H154.189V43.46H155.641L157.861 40.688H158.785L156.301 43.748L158.965 47H157.957L155.629 44.192ZM165.47 40.688V47H164.618V41.444H161.594L161.51 43.004C161.446 44.316 161.294 45.324 161.054 46.028C160.814 46.732 160.386 47.084 159.77 47.084C159.602 47.084 159.398 47.052 159.158 46.988L159.218 46.256C159.362 46.288 159.462 46.304 159.518 46.304C159.846 46.304 160.094 46.152 160.262 45.848C160.43 45.544 160.542 45.168 160.598 44.72C160.654 44.272 160.702 43.68 160.742 42.944L160.85 40.688H165.47ZM170.064 40.64C170.888 40.64 171.52 40.848 171.96 41.264C172.4 41.672 172.62 42.28 172.62 43.088V47H171.804V46.016C171.612 46.344 171.328 46.6 170.952 46.784C170.584 46.968 170.144 47.06 169.632 47.06C168.928 47.06 168.368 46.892 167.952 46.556C167.536 46.22 167.328 45.776 167.328 45.224C167.328 44.688 167.52 44.256 167.904 43.928C168.296 43.6 168.916 43.436 169.764 43.436H171.768V43.052C171.768 42.508 171.616 42.096 171.312 41.816C171.008 41.528 170.564 41.384 169.98 41.384C169.58 41.384 169.196 41.452 168.828 41.588C168.46 41.716 168.144 41.896 167.88 42.128L167.496 41.492C167.816 41.22 168.2 41.012 168.648 40.868C169.096 40.716 169.568 40.64 170.064 40.64ZM169.764 46.388C170.244 46.388 170.656 46.28 171 46.064C171.344 45.84 171.6 45.52 171.768 45.104V44.072H169.788C168.708 44.072 168.168 44.448 168.168 45.2C168.168 45.568 168.308 45.86 168.588 46.076C168.868 46.284 169.26 46.388 169.764 46.388ZM178.028 40.688H178.88V45.704L183.092 40.688H183.848V47H182.996V41.984L178.796 47H178.028V40.688ZM192.503 43.712C192.951 43.816 193.295 43.996 193.535 44.252C193.783 44.508 193.907 44.82 193.907 45.188C193.907 45.556 193.779 45.884 193.523 46.172C193.275 46.46 192.935 46.684 192.503 46.844C192.071 46.996 191.595 47.072 191.075 47.072C190.619 47.072 190.171 47.008 189.731 46.88C189.291 46.744 188.907 46.548 188.579 46.292L188.867 45.656C189.155 45.872 189.491 46.04 189.875 46.16C190.259 46.28 190.647 46.34 191.039 46.34C191.623 46.34 192.099 46.232 192.467 46.016C192.843 45.792 193.031 45.492 193.031 45.116C193.031 44.78 192.879 44.52 192.575 44.336C192.271 44.144 191.855 44.048 191.327 44.048H190.247V43.424H191.279C191.751 43.424 192.131 43.336 192.419 43.16C192.707 42.976 192.851 42.732 192.851 42.428C192.851 42.092 192.687 41.828 192.359 41.636C192.039 41.444 191.619 41.348 191.099 41.348C190.419 41.348 189.747 41.52 189.083 41.864L188.843 41.204C189.595 40.812 190.375 40.616 191.183 40.616C191.663 40.616 192.095 40.688 192.479 40.832C192.871 40.968 193.175 41.164 193.391 41.42C193.615 41.676 193.727 41.972 193.727 42.308C193.727 42.628 193.615 42.912 193.391 43.16C193.175 43.408 192.879 43.592 192.503 43.712ZM201.361 44.108H196.081C196.129 44.764 196.381 45.296 196.837 45.704C197.293 46.104 197.869 46.304 198.565 46.304C198.957 46.304 199.317 46.236 199.645 46.1C199.973 45.956 200.257 45.748 200.497 45.476L200.977 46.028C200.697 46.364 200.345 46.62 199.921 46.796C199.505 46.972 199.045 47.06 198.541 47.06C197.893 47.06 197.317 46.924 196.813 46.652C196.317 46.372 195.929 45.988 195.649 45.5C195.369 45.012 195.229 44.46 195.229 43.844C195.229 43.228 195.361 42.676 195.625 42.188C195.897 41.7 196.265 41.32 196.729 41.048C197.201 40.776 197.729 40.64 198.313 40.64C198.897 40.64 199.421 40.776 199.885 41.048C200.349 41.32 200.713 41.7 200.977 42.188C201.241 42.668 201.373 43.22 201.373 43.844L201.361 44.108ZM198.313 41.372C197.705 41.372 197.193 41.568 196.777 41.96C196.369 42.344 196.137 42.848 196.081 43.472H200.557C200.501 42.848 200.265 42.344 199.849 41.96C199.441 41.568 198.929 41.372 198.313 41.372ZM206.511 40.64C207.103 40.64 207.639 40.776 208.119 41.048C208.599 41.312 208.975 41.688 209.247 42.176C209.519 42.664 209.655 43.22 209.655 43.844C209.655 44.476 209.519 45.036 209.247 45.524C208.975 46.012 208.599 46.392 208.119 46.664C207.647 46.928 207.111 47.06 206.511 47.06C205.999 47.06 205.535 46.956 205.119 46.748C204.711 46.532 204.375 46.22 204.111 45.812V49.328H203.259V40.688H204.075V41.936C204.331 41.52 204.667 41.2 205.083 40.976C205.507 40.752 205.983 40.64 206.511 40.64ZM206.451 46.304C206.891 46.304 207.291 46.204 207.651 46.004C208.011 45.796 208.291 45.504 208.491 45.128C208.699 44.752 208.803 44.324 208.803 43.844C208.803 43.364 208.699 42.94 208.491 42.572C208.291 42.196 208.011 41.904 207.651 41.696C207.291 41.488 206.891 41.384 206.451 41.384C206.003 41.384 205.599 41.488 205.239 41.696C204.887 41.904 204.607 42.196 204.399 42.572C204.199 42.94 204.099 43.364 204.099 43.844C204.099 44.324 204.199 44.752 204.399 45.128C204.607 45.504 204.887 45.796 205.239 46.004C205.599 46.204 206.003 46.304 206.451 46.304ZM213.777 44.192H212.337V47H211.485V40.688H212.337V43.46H213.789L216.009 40.688H216.933L214.449 43.748L217.113 47H216.105L213.777 44.192ZM220.513 40.64C221.337 40.64 221.969 40.848 222.409 41.264C222.849 41.672 223.069 42.28 223.069 43.088V47H222.253V46.016C222.061 46.344 221.777 46.6 221.401 46.784C221.033 46.968 220.593 47.06 220.081 47.06C219.377 47.06 218.817 46.892 218.401 46.556C217.985 46.22 217.777 45.776 217.777 45.224C217.777 44.688 217.969 44.256 218.353 43.928C218.745 43.6 219.365 43.436 220.213 43.436H222.217V43.052C222.217 42.508 222.065 42.096 221.761 41.816C221.457 41.528 221.013 41.384 220.429 41.384C220.029 41.384 219.645 41.452 219.277 41.588C218.909 41.716 218.593 41.896 218.329 42.128L217.945 41.492C218.265 41.22 218.649 41.012 219.097 40.868C219.545 40.716 220.017 40.64 220.513 40.64ZM220.213 46.388C220.693 46.388 221.105 46.28 221.449 46.064C221.793 45.84 222.049 45.52 222.217 45.104V44.072H220.237C219.157 44.072 218.617 44.448 218.617 45.2C218.617 45.568 218.757 45.86 219.037 46.076C219.317 46.284 219.709 46.388 220.213 46.388ZM230.497 40.688V47H229.645V41.444H226.621L226.537 43.004C226.473 44.316 226.321 45.324 226.081 46.028C225.841 46.732 225.413 47.084 224.797 47.084C224.629 47.084 224.425 47.052 224.185 46.988L224.245 46.256C224.389 46.288 224.489 46.304 224.545 46.304C224.873 46.304 225.121 46.152 225.289 45.848C225.457 45.544 225.569 45.168 225.625 44.72C225.681 44.272 225.729 43.68 225.769 42.944L225.877 40.688H230.497Z" fill="black"/>
<defs>
<linearGradient id="paint0_linear_507_258" x1="49.38" y1="3.11523" x2="49.38" y2="47.245" gradientUnits="userSpaceOnUse">
<stop stop-color="#2D62A2"/>
<stop offset="0.520833" stop-color="#0EAACC"/>
<stop offset="1" stop-color="#2D62A2"/>
</linearGradient>
<linearGradient id="paint1_linear_507_258" x1="233.5" y1="0" x2="233.5" y2="24" gradientUnits="userSpaceOnUse">
<stop stop-color="#2D62A2"/>
<stop offset="0.520833" stop-color="#0EAACC"/>
<stop offset="1" stop-color="#2D62A2"/>
</linearGradient>
<clipPath id="clip0_507_258">
<rect width="116" height="51" fill="white"/>
</clipPath>
</defs>
</svg>
