{
	"asset":{
		"generator":"Khronos glTF Blender I/O v3.6.27",
		"version":"2.0"
	},
	"extensionsUsed":[
		"KHR_materials_emissive_strength",
		"KHR_materials_transmission",
		"KHR_materials_specular",
		"KHR_materials_ior"
	],
	"scene":0,
	"scenes":[
		{
			"name":"Scene",
			"nodes":[
				0,
				1,
				2,
				3,
				4,
				5,
				6,
				7,
				8,
				9,
				10,
				11,
				12,
				13
			]
		}
	],
	"nodes":[
		{
			"mesh":0,
			"name":"Curve.001",
			"rotation":[
				0.7071068286895752,
				0,
				0,
				0.7071068286895752
			],
			"scale":[
				4.98777437210083,
				8.062934875488281,
				4.98777437210083
			],
			"translation":[
				0.16378724575042725,
				0.4945017695426941,
				0
			]
		},
		{
			"mesh":1,
			"name":"Curve.003",
			"rotation":[
				0.7071068286895752,
				0,
				0,
				0.7071068286895752
			],
			"scale":[
				4.98777437210083,
				8.062934875488281,
				4.98777437210083
			],
			"translation":[
				0.16378724575042725,
				0.4945017695426941,
				0.08278022706508636
			]
		},
		{
			"mesh":2,
			"name":"Curve.005",
			"rotation":[
				0.7071068286895752,
				0,
				0,
				0.7071068286895752
			],
			"scale":[
				4.98777437210083,
				8.062934875488281,
				4.98777437210083
			],
			"translation":[
				0.16378724575042725,
				0.4945017695426941,
				0
			]
		},
		{
			"mesh":3,
			"name":"Curve.006",
			"rotation":[
				0.7071068286895752,
				0,
				0,
				0.7071068286895752
			],
			"scale":[
				4.98777437210083,
				8.062934875488281,
				4.98777437210083
			],
			"translation":[
				0.16378724575042725,
				0.4945017695426941,
				-0.06257797032594681
			]
		},
		{
			"mesh":4,
			"name":"Curve.007",
			"rotation":[
				0.7071068286895752,
				0,
				0,
				0.7071068286895752
			],
			"scale":[
				3.8951122760772705,
				8.062934875488281,
				4.98777437210083
			],
			"translation":[
				-1.3089007139205933,
				0.4945017695426941,
				-0.05335257202386856
			]
		},
		{
			"mesh":5,
			"name":"Curve.008",
			"rotation":[
				0.7071068286895752,
				0,
				0,
				0.7071068286895752
			],
			"scale":[
				4.98777437210083,
				8.062934875488281,
				4.98777437210083
			],
			"translation":[
				0.16378724575042725,
				0.4945017695426941,
				0
			]
		},
		{
			"mesh":6,
			"name":"Curve.009",
			"rotation":[
				0.7071068286895752,
				0,
				0,
				0.7071068286895752
			],
			"scale":[
				4.98777437210083,
				8.062934875488281,
				4.98777437210083
			],
			"translation":[
				0.16378724575042725,
				0.4945017695426941,
				0
			]
		},
		{
			"mesh":7,
			"name":"Curve.010",
			"rotation":[
				0.7071068286895752,
				0,
				0,
				0.7071068286895752
			],
			"scale":[
				1.9020445346832275,
				3.074730157852173,
				1.9020445346832275
			],
			"translation":[
				0.2710433304309845,
				0.34440094232559204,
				0.11825591325759888
			]
		},
		{
			"mesh":8,
			"name":"Curve.011",
			"rotation":[
				0.6408564448356628,
				-0.29883623123168945,
				-0.29883620142936707,
				0.6408563852310181
			],
			"scale":[
				2.1035470962524414,
				3.4004671573638916,
				2.1035470962524414
			],
			"translation":[
				0.3315140902996063,
				0.7498622536659241,
				0.12564358115196228
			]
		},
		{
			"mesh":9,
			"name":"Curve.012",
			"rotation":[
				0.7071068286895752,
				0,
				0,
				0.7071068286895752
			],
			"scale":[
				4.98777437210083,
				8.062934875488281,
				4.98777437210083
			],
			"translation":[
				0.16378724575042725,
				0.4945017695426941,
				0
			]
		},
		{
			"mesh":10,
			"name":"Curve.013",
			"rotation":[
				0.7071068286895752,
				0,
				0,
				0.7071068286895752
			],
			"scale":[
				4.98777437210083,
				8.062934875488281,
				4.98777437210083
			],
			"translation":[
				0.1622820943593979,
				0.4945017695426941,
				0
			]
		},
		{
			"mesh":11,
			"name":"\u0432\u043e\u0434\u04302",
			"rotation":[
				0.07338900119066238,
				-0.060289353132247925,
				-0.004444714169949293,
				0.9954695105552673
			],
			"scale":[
				2.1804120540618896,
				0.3375469446182251,
				2.1027393341064453
			],
			"translation":[
				0.0591980442404747,
				-0.27623653411865234,
				-0.21117594838142395
			]
		},
		{
			"mesh":12,
			"name":"\u0432\u043e\u0434\u04301",
			"rotation":[
				0.08485163748264313,
				-0.06023414805531502,
				-0.005138931330293417,
				0.9945580363273621
			],
			"scale":[
				2.7740821838378906,
				0.3375469148159027,
				2.1123311519622803
			],
			"translation":[
				0.2673506736755371,
				-0.1588931381702423,
				-1.4542183876037598
			]
		},
		{
			"mesh":13,
			"name":"\u043e\u0440\u0435\u043e\u043b",
			"scale":[
				0.058125291019678116,
				0.058125291019678116,
				0.058125291019678116
			],
			"translation":[
				0.07057912647724152,
				2.064957857131958,
				-0.4979044198989868
			]
		}
	],
	"materials":[
		{
			"doubleSided":true,
			"emissiveFactor":[
				1,
				1,
				1
			],
			"extensions":{
				"KHR_materials_emissive_strength":{
					"emissiveStrength":2.25
				}
			},
			"name":"Material.015",
			"pbrMetallicRoughness":{
				"metallicFactor":0
			}
		},
		{
			"alphaCutoff":0.5,
			"alphaMode":"MASK",
			"doubleSided":true,
			"extensions":{
				"KHR_materials_transmission":{
					"transmissionFactor":1
				},
				"KHR_materials_specular":{
					"specularColorFactor":[
						1,
						1,
						1
					]
				},
				"KHR_materials_ior":{
					"ior":1.4500000476837158
				}
			},
			"name":"Material.013",
			"pbrMetallicRoughness":{
				"metallicFactor":0,
				"roughnessFactor":0.31865301728248596
			}
		},
		{
			"doubleSided":true,
			"emissiveFactor":[
				1,
				1,
				1
			],
			"extensions":{
				"KHR_materials_emissive_strength":{
					"emissiveStrength":2.25
				}
			},
			"name":"Material.010",
			"pbrMetallicRoughness":{
				"metallicFactor":0,
				"roughnessFactor":0
			}
		},
		{
			"doubleSided":true,
			"emissiveFactor":[
				1,
				1,
				1
			],
			"extensions":{
				"KHR_materials_transmission":{
					"transmissionFactor":1
				},
				"KHR_materials_emissive_strength":{
					"emissiveStrength":6.779999732971191
				},
				"KHR_materials_ior":{
					"ior":1
				}
			},
			"name":"Material.014",
			"pbrMetallicRoughness":{
				"baseColorFactor":[
					0.800000011920929,
					0.800000011920929,
					0.800000011920929,
					1
				],
				"metallicFactor":0,
				"roughnessFactor":0
			}
		}
	],
	"meshes":[
		{
			"name":"Curve.006",
			"primitives":[
				{
					"attributes":{
						"POSITION":0,
						"NORMAL":1,
						"TEXCOORD_0":2
					},
					"indices":3,
					"material":0
				}
			]
		},
		{
			"name":"Curve.007",
			"primitives":[
				{
					"attributes":{
						"POSITION":4,
						"NORMAL":5,
						"TEXCOORD_0":6
					},
					"indices":7,
					"material":1
				}
			]
		},
		{
			"name":"Curve.001",
			"primitives":[
				{
					"attributes":{
						"POSITION":8,
						"NORMAL":9,
						"TEXCOORD_0":10
					},
					"indices":11,
					"material":2
				}
			]
		},
		{
			"name":"Curve.003",
			"primitives":[
				{
					"attributes":{
						"POSITION":12,
						"NORMAL":13,
						"TEXCOORD_0":14
					},
					"indices":15,
					"material":3
				}
			]
		},
		{
			"name":"Curve.005",
			"primitives":[
				{
					"attributes":{
						"POSITION":16,
						"NORMAL":17,
						"TEXCOORD_0":18
					},
					"indices":15,
					"material":3
				}
			]
		},
		{
			"name":"Curve.008",
			"primitives":[
				{
					"attributes":{
						"POSITION":19,
						"NORMAL":20,
						"TEXCOORD_0":21
					},
					"indices":22,
					"material":3
				}
			]
		},
		{
			"name":"Curve.009",
			"primitives":[
				{
					"attributes":{
						"POSITION":23,
						"NORMAL":24,
						"TEXCOORD_0":25
					},
					"indices":26,
					"material":3
				}
			]
		},
		{
			"name":"Curve.010",
			"primitives":[
				{
					"attributes":{
						"POSITION":27,
						"NORMAL":28,
						"TEXCOORD_0":29
					},
					"indices":26,
					"material":3
				}
			]
		},
		{
			"name":"Curve.011",
			"primitives":[
				{
					"attributes":{
						"POSITION":30,
						"NORMAL":31,
						"TEXCOORD_0":32
					},
					"indices":26,
					"material":3
				}
			]
		},
		{
			"name":"Curve.012",
			"primitives":[
				{
					"attributes":{
						"POSITION":33,
						"NORMAL":34,
						"TEXCOORD_0":35
					},
					"indices":36,
					"material":3
				}
			]
		},
		{
			"name":"Curve.013",
			"primitives":[
				{
					"attributes":{
						"POSITION":37,
						"NORMAL":38,
						"TEXCOORD_0":39
					},
					"indices":40,
					"material":3
				}
			]
		},
		{
			"name":"Sphere",
			"primitives":[
				{
					"attributes":{
						"POSITION":41,
						"NORMAL":42,
						"TEXCOORD_0":43
					},
					"indices":44,
					"material":2
				}
			]
		},
		{
			"name":"Sphere.001",
			"primitives":[
				{
					"attributes":{
						"POSITION":45,
						"NORMAL":46,
						"TEXCOORD_0":47
					},
					"indices":48,
					"material":2
				}
			]
		},
		{
			"name":"Sphere.002",
			"primitives":[
				{
					"attributes":{
						"POSITION":49,
						"NORMAL":50,
						"TEXCOORD_0":51
					},
					"indices":52
				}
			]
		}
	],
	"accessors":[
		{
			"bufferView":0,
			"componentType":5126,
			"count":3735,
			"max":[
				0.24421393871307373,
				0.013578812591731548,
				0.10787378251552582
			],
			"min":[
				-0.29786232113838196,
				-0.013578812591731548,
				-0.13456115126609802
			],
			"type":"VEC3"
		},
		{
			"bufferView":1,
			"componentType":5126,
			"count":3735,
			"type":"VEC3"
		},
		{
			"bufferView":2,
			"componentType":5126,
			"count":3735,
			"type":"VEC2"
		},
		{
			"bufferView":3,
			"componentType":5123,
			"count":12027,
			"type":"SCALAR"
		},
		{
			"bufferView":4,
			"componentType":5126,
			"count":634,
			"max":[
				0.22108450531959534,
				-0.023610059171915054,
				0.0978015884757042
			],
			"min":[
				-0.2696322798728943,
				-0.023610059171915054,
				-0.1216636374592781
			],
			"type":"VEC3"
		},
		{
			"bufferView":5,
			"componentType":5126,
			"count":634,
			"type":"VEC3"
		},
		{
			"bufferView":6,
			"componentType":5126,
			"count":634,
			"type":"VEC2"
		},
		{
			"bufferView":7,
			"componentType":5123,
			"count":1887,
			"type":"SCALAR"
		},
		{
			"bufferView":8,
			"componentType":5126,
			"count":600,
			"max":[
				0.22108450531959534,
				0.013578812591731548,
				0.09769480675458908
			],
			"min":[
				-0.020723745226860046,
				0.013578812591731548,
				-0.002631349954754114
			],
			"type":"VEC3"
		},
		{
			"bufferView":9,
			"componentType":5126,
			"count":600,
			"type":"VEC3"
		},
		{
			"bufferView":10,
			"componentType":5126,
			"count":600,
			"type":"VEC2"
		},
		{
			"bufferView":11,
			"componentType":5123,
			"count":2571,
			"type":"SCALAR"
		},
		{
			"bufferView":12,
			"componentType":5126,
			"count":4,
			"max":[
				0.17456196248531342,
				0.021940909326076508,
				-0.12013103812932968
			],
			"min":[
				0.006357988342642784,
				0.008362095803022385,
				-0.13432666659355164
			],
			"type":"VEC3"
		},
		{
			"bufferView":13,
			"componentType":5126,
			"count":4,
			"type":"VEC3"
		},
		{
			"bufferView":14,
			"componentType":5126,
			"count":4,
			"type":"VEC2"
		},
		{
			"bufferView":15,
			"componentType":5123,
			"count":6,
			"type":"SCALAR"
		},
		{
			"bufferView":16,
			"componentType":5126,
			"count":4,
			"max":[
				0.17456196248531342,
				0.021940909326076508,
				-0.12013103812932968
			],
			"min":[
				0.006357988342642784,
				0.008362095803022385,
				-0.13456115126609802
			],
			"type":"VEC3"
		},
		{
			"bufferView":17,
			"componentType":5126,
			"count":4,
			"type":"VEC3"
		},
		{
			"bufferView":18,
			"componentType":5126,
			"count":4,
			"type":"VEC2"
		},
		{
			"bufferView":19,
			"componentType":5126,
			"count":24,
			"max":[
				0.24220111966133118,
				0.013578812591731548,
				0.09543246775865555
			],
			"min":[
				0.1887330561876297,
				1.1567643691495057e-26,
				0.01952517405152321
			],
			"type":"VEC3"
		},
		{
			"bufferView":20,
			"componentType":5126,
			"count":24,
			"type":"VEC3"
		},
		{
			"bufferView":21,
			"componentType":5126,
			"count":24,
			"type":"VEC2"
		},
		{
			"bufferView":22,
			"componentType":5123,
			"count":66,
			"type":"SCALAR"
		},
		{
			"bufferView":23,
			"componentType":5126,
			"count":26,
			"max":[
				-0.1823626458644867,
				0.013578812591731548,
				0.09822776168584824
			],
			"min":[
				-0.29680734872817993,
				-2.0453272009175448e-27,
				-0.11255202442407608
			],
			"type":"VEC3"
		},
		{
			"bufferView":24,
			"componentType":5126,
			"count":26,
			"type":"VEC3"
		},
		{
			"bufferView":25,
			"componentType":5126,
			"count":26,
			"type":"VEC2"
		},
		{
			"bufferView":26,
			"componentType":5123,
			"count":72,
			"type":"SCALAR"
		},
		{
			"bufferView":27,
			"componentType":5126,
			"count":26,
			"max":[
				0.06570324301719666,
				0.006789405830204487,
				0.1270367056131363
			],
			"min":[
				-0.04874145984649658,
				-0.0067894067615270615,
				-0.08374308049678802
			],
			"type":"VEC3"
		},
		{
			"bufferView":28,
			"componentType":5126,
			"count":26,
			"type":"VEC3"
		},
		{
			"bufferView":29,
			"componentType":5126,
			"count":26,
			"type":"VEC2"
		},
		{
			"bufferView":30,
			"componentType":5126,
			"count":26,
			"max":[
				0.06670695543289185,
				0.014491027221083641,
				0.12835747003555298
			],
			"min":[
				-0.07028384506702423,
				-0.0067894067615270615,
				-0.12841729819774628
			],
			"type":"VEC3"
		},
		{
			"bufferView":31,
			"componentType":5126,
			"count":26,
			"type":"VEC3"
		},
		{
			"bufferView":32,
			"componentType":5126,
			"count":26,
			"type":"VEC2"
		},
		{
			"bufferView":33,
			"componentType":5126,
			"count":98,
			"max":[
				0.007404642179608345,
				0.013578812591731548,
				0.06630218029022217
			],
			"min":[
				-0.09552284330129623,
				-8.958721463118746e-20,
				-0.13469457626342773
			],
			"type":"VEC3"
		},
		{
			"bufferView":34,
			"componentType":5126,
			"count":98,
			"type":"VEC3"
		},
		{
			"bufferView":35,
			"componentType":5126,
			"count":98,
			"type":"VEC2"
		},
		{
			"bufferView":36,
			"componentType":5123,
			"count":288,
			"type":"SCALAR"
		},
		{
			"bufferView":37,
			"componentType":5126,
			"count":38,
			"max":[
				0.15224166214466095,
				0.013578812591731548,
				0.06788451224565506
			],
			"min":[
				0.12977491319179535,
				-2.489466095578443e-16,
				0.02214575745165348
			],
			"type":"VEC3"
		},
		{
			"bufferView":38,
			"componentType":5126,
			"count":38,
			"type":"VEC3"
		},
		{
			"bufferView":39,
			"componentType":5126,
			"count":38,
			"type":"VEC2"
		},
		{
			"bufferView":40,
			"componentType":5123,
			"count":102,
			"type":"SCALAR"
		},
		{
			"bufferView":41,
			"componentType":5126,
			"count":3604,
			"max":[
				0.9935949444770813,
				0.9975767135620117,
				0.9935945868492126
			],
			"min":[
				-0.993594229221344,
				0,
				-0.9935950040817261
			],
			"type":"VEC3"
		},
		{
			"bufferView":42,
			"componentType":5126,
			"count":3604,
			"type":"VEC3"
		},
		{
			"bufferView":43,
			"componentType":5126,
			"count":3604,
			"type":"VEC2"
		},
		{
			"bufferView":44,
			"componentType":5123,
			"count":20814,
			"type":"SCALAR"
		},
		{
			"bufferView":45,
			"componentType":5126,
			"count":3695,
			"max":[
				0.9935949444770813,
				0.9975767135620117,
				0.9935945868492126
			],
			"min":[
				-0.993594229221344,
				0,
				-0.9935950040817261
			],
			"type":"VEC3"
		},
		{
			"bufferView":46,
			"componentType":5126,
			"count":3695,
			"type":"VEC3"
		},
		{
			"bufferView":47,
			"componentType":5126,
			"count":3695,
			"type":"VEC2"
		},
		{
			"bufferView":48,
			"componentType":5123,
			"count":21516,
			"type":"SCALAR"
		},
		{
			"bufferView":49,
			"componentType":5126,
			"count":1984,
			"max":[
				0.9999997019767761,
				1,
				0.9999993443489075
			],
			"min":[
				-0.9999990463256836,
				-1,
				-1
			],
			"type":"VEC3"
		},
		{
			"bufferView":50,
			"componentType":5126,
			"count":1984,
			"type":"VEC3"
		},
		{
			"bufferView":51,
			"componentType":5126,
			"count":1984,
			"type":"VEC2"
		},
		{
			"bufferView":52,
			"componentType":5123,
			"count":2880,
			"type":"SCALAR"
		}
	],
	"bufferViews":[
		{
			"buffer":0,
			"byteLength":44820,
			"byteOffset":0,
			"target":34962
		},
		{
			"buffer":0,
			"byteLength":44820,
			"byteOffset":44820,
			"target":34962
		},
		{
			"buffer":0,
			"byteLength":29880,
			"byteOffset":89640,
			"target":34962
		},
		{
			"buffer":0,
			"byteLength":24054,
			"byteOffset":119520,
			"target":34963
		},
		{
			"buffer":0,
			"byteLength":7608,
			"byteOffset":143576,
			"target":34962
		},
		{
			"buffer":0,
			"byteLength":7608,
			"byteOffset":151184,
			"target":34962
		},
		{
			"buffer":0,
			"byteLength":5072,
			"byteOffset":158792,
			"target":34962
		},
		{
			"buffer":0,
			"byteLength":3774,
			"byteOffset":163864,
			"target":34963
		},
		{
			"buffer":0,
			"byteLength":7200,
			"byteOffset":167640,
			"target":34962
		},
		{
			"buffer":0,
			"byteLength":7200,
			"byteOffset":174840,
			"target":34962
		},
		{
			"buffer":0,
			"byteLength":4800,
			"byteOffset":182040,
			"target":34962
		},
		{
			"buffer":0,
			"byteLength":5142,
			"byteOffset":186840,
			"target":34963
		},
		{
			"buffer":0,
			"byteLength":48,
			"byteOffset":191984,
			"target":34962
		},
		{
			"buffer":0,
			"byteLength":48,
			"byteOffset":192032,
			"target":34962
		},
		{
			"buffer":0,
			"byteLength":32,
			"byteOffset":192080,
			"target":34962
		},
		{
			"buffer":0,
			"byteLength":12,
			"byteOffset":192112,
			"target":34963
		},
		{
			"buffer":0,
			"byteLength":48,
			"byteOffset":192124,
			"target":34962
		},
		{
			"buffer":0,
			"byteLength":48,
			"byteOffset":192172,
			"target":34962
		},
		{
			"buffer":0,
			"byteLength":32,
			"byteOffset":192220,
			"target":34962
		},
		{
			"buffer":0,
			"byteLength":288,
			"byteOffset":192252,
			"target":34962
		},
		{
			"buffer":0,
			"byteLength":288,
			"byteOffset":192540,
			"target":34962
		},
		{
			"buffer":0,
			"byteLength":192,
			"byteOffset":192828,
			"target":34962
		},
		{
			"buffer":0,
			"byteLength":132,
			"byteOffset":193020,
			"target":34963
		},
		{
			"buffer":0,
			"byteLength":312,
			"byteOffset":193152,
			"target":34962
		},
		{
			"buffer":0,
			"byteLength":312,
			"byteOffset":193464,
			"target":34962
		},
		{
			"buffer":0,
			"byteLength":208,
			"byteOffset":193776,
			"target":34962
		},
		{
			"buffer":0,
			"byteLength":144,
			"byteOffset":193984,
			"target":34963
		},
		{
			"buffer":0,
			"byteLength":312,
			"byteOffset":194128,
			"target":34962
		},
		{
			"buffer":0,
			"byteLength":312,
			"byteOffset":194440,
			"target":34962
		},
		{
			"buffer":0,
			"byteLength":208,
			"byteOffset":194752,
			"target":34962
		},
		{
			"buffer":0,
			"byteLength":312,
			"byteOffset":194960,
			"target":34962
		},
		{
			"buffer":0,
			"byteLength":312,
			"byteOffset":195272,
			"target":34962
		},
		{
			"buffer":0,
			"byteLength":208,
			"byteOffset":195584,
			"target":34962
		},
		{
			"buffer":0,
			"byteLength":1176,
			"byteOffset":195792,
			"target":34962
		},
		{
			"buffer":0,
			"byteLength":1176,
			"byteOffset":196968,
			"target":34962
		},
		{
			"buffer":0,
			"byteLength":784,
			"byteOffset":198144,
			"target":34962
		},
		{
			"buffer":0,
			"byteLength":576,
			"byteOffset":198928,
			"target":34963
		},
		{
			"buffer":0,
			"byteLength":456,
			"byteOffset":199504,
			"target":34962
		},
		{
			"buffer":0,
			"byteLength":456,
			"byteOffset":199960,
			"target":34962
		},
		{
			"buffer":0,
			"byteLength":304,
			"byteOffset":200416,
			"target":34962
		},
		{
			"buffer":0,
			"byteLength":204,
			"byteOffset":200720,
			"target":34963
		},
		{
			"buffer":0,
			"byteLength":43248,
			"byteOffset":200924,
			"target":34962
		},
		{
			"buffer":0,
			"byteLength":43248,
			"byteOffset":244172,
			"target":34962
		},
		{
			"buffer":0,
			"byteLength":28832,
			"byteOffset":287420,
			"target":34962
		},
		{
			"buffer":0,
			"byteLength":41628,
			"byteOffset":316252,
			"target":34963
		},
		{
			"buffer":0,
			"byteLength":44340,
			"byteOffset":357880,
			"target":34962
		},
		{
			"buffer":0,
			"byteLength":44340,
			"byteOffset":402220,
			"target":34962
		},
		{
			"buffer":0,
			"byteLength":29560,
			"byteOffset":446560,
			"target":34962
		},
		{
			"buffer":0,
			"byteLength":43032,
			"byteOffset":476120,
			"target":34963
		},
		{
			"buffer":0,
			"byteLength":23808,
			"byteOffset":519152,
			"target":34962
		},
		{
			"buffer":0,
			"byteLength":23808,
			"byteOffset":542960,
			"target":34962
		},
		{
			"buffer":0,
			"byteLength":15872,
			"byteOffset":566768,
			"target":34962
		},
		{
			"buffer":0,
			"byteLength":5760,
			"byteOffset":582640,
			"target":34963
		}
	],
	"buffers":[
		{
			"byteLength":588400,
			"uri":"%D0%BB%D0%BE%D0%B3%D0%BE%2010.bin"
		}
	]
}
