{
	"asset":{
		"generator":"Khronos glTF Blender I/O v3.5.30",
		"version":"2.0"
	},
	"extensionsUsed":[
		"KHR_materials_transmission",
		"KHR_materials_ior"
	],
	"scene":0,
	"scenes":[
		{
			"name":"Scene",
			"nodes":[
				0,
				1
			]
		}
	],
	"nodes":[
		{
			"mesh":0,
			"name":"Curve.001",
			"rotation":[
				0.7071068286895752,
				0,
				0,
				0.7071068286895752
			],
			"scale":[
				4.98777437210083,
				8.062934875488281,
				4.98777437210083
			],
			"translation":[
				0.16378724575042725,
				0.4945017695426941,
				0
			]
		},
		{
			"mesh":1,
			"name":"Curve.002",
			"rotation":[
				0,
				0.7071068286895752,
				-0.7071068286895752,
				5.338509012631221e-08
			],
			"scale":[
				-4.353700160980225,
				-7.037929058074951,
				-4.079012870788574
			],
			"translation":[
				0.16378724575042725,
				-0.019946694374084473,
				0
			]
		}
	],
	"materials":[
		{
			"alphaMode":"BLEND",
			"doubleSided":true,
			"extensions":{
				"KHR_materials_transmission":{
					"transmissionFactor":1
				},
				"KHR_materials_ior":{
					"ior":0.8100000023841858
				}
			},
			"name":"Material.015",
			"pbrMetallicRoughness":{
				"baseColorTexture":{
					"index":0,
					"texCoord":1
				},
				"metallicFactor":0,
				"roughnessFactor":0
			}
		},
		{
			"doubleSided":true,
			"emissiveFactor":[
				1,
				1,
				1
			],
			"emissiveTexture":{
				"index":1
			},
			"name":"Material",
			"pbrMetallicRoughness":{
				"baseColorTexture":{
					"index":2,
					"texCoord":1
				},
				"metallicFactor":0,
				"roughnessFactor":0.5
			}
		},
		{
			"alphaMode":"BLEND",
			"doubleSided":true,
			"extensions":{
				"KHR_materials_transmission":{
					"transmissionFactor":1
				},
				"KHR_materials_ior":{
					"ior":0.8100000023841858
				}
			},
			"name":"Material.001",
			"pbrMetallicRoughness":{
				"baseColorTexture":{
					"index":3,
					"texCoord":1
				},
				"roughnessFactor":0.30454546213150024
			}
		}
	],
	"meshes":[
		{
			"name":"Curve.006",
			"primitives":[
				{
					"attributes":{
						"POSITION":0,
						"TEXCOORD_0":1,
						"TEXCOORD_1":2,
						"NORMAL":3
					},
					"indices":4,
					"material":0
				},
				{
					"attributes":{
						"POSITION":5,
						"TEXCOORD_0":6,
						"TEXCOORD_1":7,
						"NORMAL":8
					},
					"indices":9,
					"material":1
				}
			]
		},
		{
			"name":"Curve.001",
			"primitives":[
				{
					"attributes":{
						"POSITION":10,
						"TEXCOORD_0":11,
						"TEXCOORD_1":12,
						"NORMAL":13
					},
					"indices":14,
					"material":2
				}
			]
		}
	],
	"textures":[
		{
			"sampler":0,
			"source":0
		},
		{
			"sampler":0,
			"source":1
		},
		{
			"sampler":0,
			"source":0
		},
		{
			"sampler":0,
			"source":0
		}
	],
	"images":[
		{
			"bufferView":5,
			"mimeType":"image/png",
			"name":"lightmap1"
		},
		{
			"bufferView":11,
			"mimeType":"image/png",
			"name":"Screenshot_1"
		}
	],
	"accessors":[
		{
			"bufferView":0,
			"componentType":5126,
			"count":10990,
			"max":[
				0.24421393871307373,
				0.013578812591731548,
				0.10787378251552582
			],
			"min":[
				-0.29786232113838196,
				-0.013578812591731548,
				-0.13456115126609802
			],
			"type":"VEC3"
		},
		{
			"bufferView":1,
			"componentType":5126,
			"count":10990,
			"type":"VEC2"
		},
		{
			"bufferView":2,
			"componentType":5126,
			"count":10990,
			"type":"VEC2"
		},
		{
			"bufferView":3,
			"componentType":5126,
			"count":10990,
			"type":"VEC3"
		},
		{
			"bufferView":4,
			"componentType":5123,
			"count":14598,
			"type":"SCALAR"
		},
		{
			"bufferView":6,
			"componentType":5126,
			"count":1887,
			"max":[
				0.22108449041843414,
				0.0002687070518732071,
				0.0978015810251236
			],
			"min":[
				-0.2696322500705719,
				0.0002687070518732071,
				-0.12166363000869751
			],
			"type":"VEC3"
		},
		{
			"bufferView":7,
			"componentType":5126,
			"count":1887,
			"type":"VEC2"
		},
		{
			"bufferView":8,
			"componentType":5126,
			"count":1887,
			"type":"VEC2"
		},
		{
			"bufferView":9,
			"componentType":5126,
			"count":1887,
			"type":"VEC3"
		},
		{
			"bufferView":10,
			"componentType":5123,
			"count":1887,
			"type":"SCALAR"
		},
		{
			"bufferView":12,
			"componentType":5126,
			"count":10990,
			"max":[
				0.24421393871307373,
				0.013578812591731548,
				0.004731894005089998
			],
			"min":[
				-0.29786232113838196,
				-0.013578812591731548,
				-0.23770304024219513
			],
			"type":"VEC3"
		},
		{
			"bufferView":13,
			"componentType":5126,
			"count":10990,
			"type":"VEC2"
		},
		{
			"bufferView":14,
			"componentType":5126,
			"count":10990,
			"type":"VEC2"
		},
		{
			"bufferView":15,
			"componentType":5126,
			"count":10990,
			"type":"VEC3"
		},
		{
			"bufferView":16,
			"componentType":5123,
			"count":14598,
			"type":"SCALAR"
		}
	],
	"bufferViews":[
		{
			"buffer":0,
			"byteLength":131880,
			"byteOffset":0,
			"target":34962
		},
		{
			"buffer":0,
			"byteLength":87920,
			"byteOffset":131880,
			"target":34962
		},
		{
			"buffer":0,
			"byteLength":87920,
			"byteOffset":219800,
			"target":34962
		},
		{
			"buffer":0,
			"byteLength":131880,
			"byteOffset":307720,
			"target":34962
		},
		{
			"buffer":0,
			"byteLength":29196,
			"byteOffset":439600,
			"target":34963
		},
		{
			"buffer":0,
			"byteLength":20559,
			"byteOffset":468796
		},
		{
			"buffer":0,
			"byteLength":22644,
			"byteOffset":489356,
			"target":34962
		},
		{
			"buffer":0,
			"byteLength":15096,
			"byteOffset":512000,
			"target":34962
		},
		{
			"buffer":0,
			"byteLength":15096,
			"byteOffset":527096,
			"target":34962
		},
		{
			"buffer":0,
			"byteLength":22644,
			"byteOffset":542192,
			"target":34962
		},
		{
			"buffer":0,
			"byteLength":3774,
			"byteOffset":564836,
			"target":34963
		},
		{
			"buffer":0,
			"byteLength":1446703,
			"byteOffset":568612
		},
		{
			"buffer":0,
			"byteLength":131880,
			"byteOffset":2015316,
			"target":34962
		},
		{
			"buffer":0,
			"byteLength":87920,
			"byteOffset":2147196,
			"target":34962
		},
		{
			"buffer":0,
			"byteLength":87920,
			"byteOffset":2235116,
			"target":34962
		},
		{
			"buffer":0,
			"byteLength":131880,
			"byteOffset":2323036,
			"target":34962
		},
		{
			"buffer":0,
			"byteLength":29196,
			"byteOffset":2454916,
			"target":34963
		}
	],
	"samplers":[
		{
			"magFilter":9729,
			"minFilter":9987
		}
	],
	"buffers":[
		{
			"byteLength":2484112,
			"uri":"data:application/octet-stream;base64,"
		}
	]
}
